<svg width="33" height="34" viewBox="0 0 33 34" fill="none" xmlns="http://www.w3.org/2000/svg">
<rect y="0.25" width="33" height="33" rx="16.5" fill="#C37999" fill-opacity="0.2"/>
<g clip-path="url(#clip0_3_2082)">
<g clip-path="url(#clip1_3_2082)">
<path d="M23.3679 9.25H9.59798C9.51681 9.24989 9.43647 9.26632 9.36187 9.2983C9.28726 9.33028 9.21996 9.37714 9.16408 9.436C9.10819 9.49487 9.06489 9.56451 9.03683 9.64068C9.00876 9.71684 8.99652 9.79793 9.00085 9.87898C9.01538 10.0354 9.08847 10.1806 9.20547 10.2854C9.32247 10.3902 9.47475 10.4469 9.63182 10.4443H10.0817C10.1872 10.4443 10.2885 10.4862 10.3632 10.5609C10.4378 10.6355 10.4797 10.7368 10.4797 10.8424V23.4319C10.4809 23.5013 10.5001 23.5691 10.5354 23.6287C10.5708 23.6884 10.6212 23.7377 10.6815 23.7719C10.7419 23.8061 10.8101 23.8239 10.8794 23.8236C10.9488 23.8234 11.0168 23.805 11.0769 23.7703L12.6692 22.797C12.7316 22.759 12.8032 22.7389 12.8762 22.7389C12.9493 22.7389 13.0209 22.759 13.0833 22.797L14.4766 23.6489C14.5392 23.6872 14.6111 23.7075 14.6846 23.7075C14.758 23.7075 14.83 23.6872 14.8926 23.6489L16.2859 22.797C16.3485 22.7586 16.4205 22.7383 16.4939 22.7383C16.5673 22.7383 16.6393 22.7586 16.7019 22.797L18.0952 23.6489C18.1578 23.6872 18.2298 23.7075 18.3032 23.7075C18.3766 23.7075 18.4486 23.6872 18.5112 23.6489L19.9045 22.797C19.9669 22.759 20.0385 22.7389 20.1115 22.7389C20.1845 22.7389 20.2561 22.759 20.3185 22.797L21.9109 23.7703C21.9709 23.805 22.039 23.8234 22.1083 23.8236C22.1777 23.8239 22.2459 23.8061 22.3062 23.7719C22.3666 23.7377 22.4169 23.6884 22.4523 23.6287C22.4877 23.5691 22.5069 23.5013 22.508 23.4319V10.8424C22.508 10.7368 22.5499 10.6355 22.6246 10.5609C22.6993 10.4862 22.8005 10.4443 22.9061 10.4443H23.3898C23.4709 10.4444 23.5513 10.4279 23.6259 10.396C23.7005 10.364 23.7678 10.3171 23.8237 10.2583C23.8796 10.1994 23.9229 10.1298 23.9509 10.0536C23.979 9.97743 23.9912 9.89634 23.9869 9.81529C23.9725 9.66094 23.9012 9.51749 23.7867 9.41296C23.6722 9.30843 23.5229 9.25032 23.3679 9.25ZM21.0231 21.8256L20.3225 21.3917C20.2601 21.3537 20.1885 21.3337 20.1155 21.3337C20.0425 21.3337 19.9709 21.3537 19.9085 21.3917L18.5152 22.2436C18.4526 22.282 18.3806 22.3023 18.3072 22.3023C18.2338 22.3023 18.1618 22.282 18.0992 22.2436L16.7059 21.3917C16.6433 21.3533 16.5713 21.333 16.4979 21.333C16.4244 21.333 16.3525 21.3533 16.2899 21.3917L14.8965 22.2436C14.8339 22.282 14.762 22.3023 14.6885 22.3023C14.6151 22.3023 14.5431 22.282 14.4805 22.2436L13.0872 21.3917C13.0249 21.3537 12.9532 21.3337 12.8802 21.3337C12.8072 21.3337 12.7356 21.3537 12.6732 21.3917L11.9865 21.8256C11.9563 21.8441 11.9216 21.8541 11.8862 21.8546C11.8508 21.8552 11.8158 21.8463 11.785 21.8288C11.7542 21.8114 11.7285 21.786 11.7108 21.7554C11.693 21.7247 11.6838 21.6899 11.684 21.6544V10.8424C11.684 10.7368 11.7259 10.6355 11.8006 10.5609C11.8752 10.4862 11.9765 10.4443 12.0821 10.4443H20.9276C21.0332 10.4443 21.1344 10.4862 21.2091 10.5609C21.2837 10.6355 21.3257 10.7368 21.3257 10.8424V21.6544C21.3259 21.6899 21.3166 21.7247 21.2989 21.7554C21.2811 21.786 21.2555 21.8114 21.2247 21.8288C21.1938 21.8463 21.1589 21.8552 21.1235 21.8546C21.088 21.8541 21.0534 21.8441 21.0231 21.8256Z" fill="url(#paint0_linear_3_2082)"/>
<path d="M13.0158 13.6291H19.9824C20.1408 13.6291 20.2926 13.5662 20.4046 13.4542C20.5166 13.3422 20.5795 13.1903 20.5795 13.0319C20.5795 12.8736 20.5166 12.7217 20.4046 12.6097C20.2926 12.4977 20.1408 12.4348 19.9824 12.4348H13.0158C12.8575 12.4348 12.7056 12.4977 12.5936 12.6097C12.4816 12.7217 12.4187 12.8736 12.4187 13.0319C12.4187 13.1903 12.4816 13.3422 12.5936 13.4542C12.7056 13.5662 12.8575 13.6291 13.0158 13.6291Z" fill="url(#paint1_linear_3_2082)"/>
<path d="M13.0158 16.6147H19.9824C20.1408 16.6147 20.2926 16.5518 20.4046 16.4398C20.5166 16.3278 20.5795 16.1759 20.5795 16.0175C20.5795 15.8592 20.5166 15.7073 20.4046 15.5953C20.2926 15.4833 20.1408 15.4204 19.9824 15.4204H13.0158C12.8575 15.4204 12.7056 15.4833 12.5936 15.5953C12.4816 15.7073 12.4187 15.8592 12.4187 16.0175C12.4187 16.1759 12.4816 16.3278 12.5936 16.4398C12.7056 16.5518 12.8575 16.6147 13.0158 16.6147Z" fill="url(#paint2_linear_3_2082)"/>
<path d="M19.9824 18.406H13.0158C12.8575 18.406 12.7056 18.4689 12.5936 18.5809C12.4816 18.6929 12.4187 18.8448 12.4187 19.0031C12.4187 19.1615 12.4816 19.3134 12.5936 19.4254C12.7056 19.5374 12.8575 19.6003 13.0158 19.6003H19.9824C20.1408 19.6003 20.2926 19.5374 20.4046 19.4254C20.5166 19.3134 20.5795 19.1615 20.5795 19.0031C20.5795 18.8448 20.5166 18.6929 20.4046 18.5809C20.2926 18.4689 20.1408 18.406 19.9824 18.406Z" fill="url(#paint3_linear_3_2082)"/>
</g>
</g>
<defs>
<linearGradient id="paint0_linear_3_2082" x1="16.4939" y1="9.25" x2="16.4939" y2="23.8237" gradientUnits="userSpaceOnUse">
<stop stop-color="#E0686F"/>
<stop offset="1" stop-color="#9695DE"/>
</linearGradient>
<linearGradient id="paint1_linear_3_2082" x1="16.4991" y1="12.4348" x2="16.4991" y2="13.6291" gradientUnits="userSpaceOnUse">
<stop stop-color="#E0686F"/>
<stop offset="1" stop-color="#9695DE"/>
</linearGradient>
<linearGradient id="paint2_linear_3_2082" x1="16.4991" y1="15.4204" x2="16.4991" y2="16.6147" gradientUnits="userSpaceOnUse">
<stop stop-color="#E0686F"/>
<stop offset="1" stop-color="#9695DE"/>
</linearGradient>
<linearGradient id="paint3_linear_3_2082" x1="16.4991" y1="18.406" x2="16.4991" y2="19.6003" gradientUnits="userSpaceOnUse">
<stop stop-color="#E0686F"/>
<stop offset="1" stop-color="#9695DE"/>
</linearGradient>
<clipPath id="clip0_3_2082">
<rect width="15" height="14.58" fill="white" transform="translate(9 9.25)"/>
</clipPath>
<clipPath id="clip1_3_2082">
<rect width="14.998" height="14.58" fill="white" transform="translate(9.0011 9.25)"/>
</clipPath>
</defs>
</svg>
