<svg width="33" height="33" viewBox="0 0 33 33" fill="none" xmlns="http://www.w3.org/2000/svg">
<rect width="33" height="33" rx="16.5" fill="#C7D8E6"/>
<g clip-path="url(#clip0_938_2655)">
<g clip-path="url(#clip1_938_2655)">
<path d="M23.3679 9H9.59798C9.51681 8.99989 9.43647 9.01632 9.36187 9.0483C9.28726 9.08028 9.21996 9.12714 9.16408 9.186C9.10819 9.24487 9.06489 9.31451 9.03683 9.39068C9.00876 9.46684 8.99652 9.54793 9.00085 9.62898C9.01538 9.7854 9.08847 9.93055 9.20547 10.0354C9.32247 10.1402 9.47475 10.1969 9.63182 10.1943H10.0817C10.1872 10.1943 10.2885 10.2362 10.3632 10.3109C10.4378 10.3855 10.4797 10.4868 10.4797 10.5924V23.1819C10.4809 23.2512 10.5001 23.3191 10.5354 23.3787C10.5708 23.4384 10.6212 23.4877 10.6815 23.5219C10.7419 23.5561 10.8101 23.5739 10.8794 23.5736C10.9488 23.5734 11.0168 23.555 11.0769 23.5203L12.6692 22.547C12.7316 22.509 12.8032 22.4889 12.8762 22.4889C12.9493 22.4889 13.0209 22.509 13.0833 22.547L14.4766 23.3989C14.5392 23.4372 14.6111 23.4575 14.6846 23.4575C14.758 23.4575 14.83 23.4372 14.8926 23.3989L16.2859 22.547C16.3485 22.5086 16.4205 22.4883 16.4939 22.4883C16.5673 22.4883 16.6393 22.5086 16.7019 22.547L18.0952 23.3989C18.1578 23.4372 18.2298 23.4575 18.3032 23.4575C18.3766 23.4575 18.4486 23.4372 18.5112 23.3989L19.9045 22.547C19.9669 22.509 20.0385 22.4889 20.1115 22.4889C20.1845 22.4889 20.2561 22.509 20.3185 22.547L21.9109 23.5203C21.9709 23.555 22.039 23.5734 22.1083 23.5736C22.1777 23.5739 22.2459 23.5561 22.3062 23.5219C22.3666 23.4877 22.4169 23.4384 22.4523 23.3787C22.4877 23.3191 22.5069 23.2512 22.508 23.1819V10.5924C22.508 10.4868 22.5499 10.3855 22.6246 10.3109C22.6993 10.2362 22.8005 10.1943 22.9061 10.1943H23.3898C23.4709 10.1944 23.5513 10.1779 23.6259 10.146C23.7005 10.114 23.7678 10.0671 23.8237 10.0083C23.8796 9.9494 23.9229 9.87976 23.9509 9.80359C23.979 9.72743 23.9912 9.64634 23.9869 9.56529C23.9725 9.41094 23.9012 9.26749 23.7867 9.16296C23.6722 9.05843 23.5229 9.00032 23.3679 9ZM21.0231 21.5756L20.3225 21.1417C20.2601 21.1037 20.1885 21.0837 20.1155 21.0837C20.0425 21.0837 19.9709 21.1037 19.9085 21.1417L18.5152 21.9936C18.4526 22.032 18.3806 22.0523 18.3072 22.0523C18.2338 22.0523 18.1618 22.032 18.0992 21.9936L16.7059 21.1417C16.6433 21.1033 16.5713 21.083 16.4979 21.083C16.4244 21.083 16.3525 21.1033 16.2899 21.1417L14.8965 21.9936C14.8339 22.032 14.762 22.0523 14.6885 22.0523C14.6151 22.0523 14.5431 22.032 14.4805 21.9936L13.0872 21.1417C13.0249 21.1037 12.9532 21.0837 12.8802 21.0837C12.8072 21.0837 12.7356 21.1037 12.6732 21.1417L11.9865 21.5756C11.9563 21.5941 11.9216 21.6041 11.8862 21.6046C11.8508 21.6052 11.8158 21.5963 11.785 21.5788C11.7542 21.5614 11.7285 21.536 11.7108 21.5054C11.693 21.4747 11.6838 21.4399 11.684 21.4044V10.5924C11.684 10.4868 11.7259 10.3855 11.8006 10.3109C11.8752 10.2362 11.9765 10.1943 12.0821 10.1943H20.9276C21.0332 10.1943 21.1344 10.2362 21.2091 10.3109C21.2837 10.3855 21.3257 10.4868 21.3257 10.5924V21.4044C21.3259 21.4399 21.3166 21.4747 21.2989 21.5054C21.2811 21.536 21.2555 21.5614 21.2247 21.5788C21.1938 21.5963 21.1589 21.6052 21.1235 21.6046C21.088 21.6041 21.0534 21.5941 21.0231 21.5756Z" fill="#327BAF"/>
<path d="M13.0161 13.3791H19.9826C20.141 13.3791 20.2929 13.3162 20.4049 13.2042C20.5169 13.0922 20.5798 12.9403 20.5798 12.7819C20.5798 12.6236 20.5169 12.4717 20.4049 12.3597C20.2929 12.2477 20.141 12.1848 19.9826 12.1848H13.0161C12.8577 12.1848 12.7058 12.2477 12.5938 12.3597C12.4819 12.4717 12.4189 12.6236 12.4189 12.7819C12.4189 12.9403 12.4819 13.0922 12.5938 13.2042C12.7058 13.3162 12.8577 13.3791 13.0161 13.3791Z" fill="#327BAF"/>
<path d="M13.0161 16.3647H19.9826C20.141 16.3647 20.2929 16.3018 20.4049 16.1898C20.5169 16.0778 20.5798 15.9259 20.5798 15.7675C20.5798 15.6092 20.5169 15.4573 20.4049 15.3453C20.2929 15.2333 20.141 15.1704 19.9826 15.1704H13.0161C12.8577 15.1704 12.7058 15.2333 12.5938 15.3453C12.4819 15.4573 12.4189 15.6092 12.4189 15.7675C12.4189 15.9259 12.4819 16.0778 12.5938 16.1898C12.7058 16.3018 12.8577 16.3647 13.0161 16.3647Z" fill="#327BAF"/>
<path d="M19.9826 18.156H13.0161C12.8577 18.156 12.7058 18.2189 12.5938 18.3309C12.4819 18.4429 12.4189 18.5948 12.4189 18.7531C12.4189 18.9115 12.4819 19.0634 12.5938 19.1754C12.7058 19.2874 12.8577 19.3503 13.0161 19.3503H19.9826C20.141 19.3503 20.2929 19.2874 20.4049 19.1754C20.5169 19.0634 20.5798 18.9115 20.5798 18.7531C20.5798 18.5948 20.5169 18.4429 20.4049 18.3309C20.2929 18.2189 20.141 18.156 19.9826 18.156Z" fill="#327BAF"/>
</g>
</g>
<defs>
<clipPath id="clip0_938_2655">
<rect width="15" height="14.58" fill="white" transform="translate(9 9)"/>
</clipPath>
<clipPath id="clip1_938_2655">
<rect width="14.998" height="14.58" fill="white" transform="translate(9.00098 9)"/>
</clipPath>
</defs>
</svg>
