<svg width="34" height="33" viewBox="0 0 34 33" fill="none" xmlns="http://www.w3.org/2000/svg">
<g clip-path="url(#clip0_451_95)">
<rect x="0.400391" width="33" height="33" rx="16.5" fill="#FFAF54" fill-opacity="0.1"/>
<rect x="-4.59961" y="-5" width="44" height="44" rx="22" fill="#FFC481" fill-opacity="0.1"/>
<g clip-path="url(#clip1_451_95)">
<g clip-path="url(#clip2_451_95)">
<path d="M21.8754 12.615V11.3745H22.0585C22.275 11.3751 22.483 11.2904 22.6374 11.1387C22.7918 10.987 22.8803 10.7806 22.8836 10.5641V8.81004C22.8799 8.59374 22.7914 8.38756 22.637 8.23601C22.4826 8.08446 22.2748 7.99969 22.0585 8H12.2261C12.0096 7.9997 11.8017 8.08467 11.6473 8.23654C11.4929 8.3884 11.4046 8.59493 11.4014 8.81144V10.5655C11.4046 10.7819 11.493 10.9884 11.6474 11.1401C11.8018 11.2918 12.0097 11.3765 12.2261 11.3759H12.4093V12.6164C12.4089 12.9064 12.474 13.1927 12.5999 13.4539C12.7258 13.7152 12.9091 13.9445 13.1362 14.1249L16.4338 16.761L13.2011 19.2669C12.9677 19.4469 12.7789 19.6782 12.6493 19.9429C12.5197 20.2076 12.4528 20.4985 12.4538 20.7933V22.1555H12.2261C12.0097 22.1549 11.8018 22.2397 11.6474 22.3913C11.493 22.543 11.4046 22.7495 11.4014 22.9659V24.7182C11.4045 24.9348 11.4928 25.1414 11.6472 25.2933C11.8015 25.4453 12.0095 25.5303 12.2261 25.53H22.0585C22.2751 25.5302 22.4831 25.4452 22.6375 25.2933C22.7919 25.1414 22.8803 24.9348 22.8836 24.7182V22.9659C22.8803 22.7494 22.7918 22.543 22.6374 22.3913C22.483 22.2396 22.275 22.1549 22.0585 22.1555H21.9182V20.802C21.917 20.5044 21.8474 20.2109 21.715 19.9444C21.5825 19.6778 21.3906 19.4452 21.1541 19.2644L17.8564 16.7561L21.1495 14.1249C21.3766 13.9443 21.5598 13.7146 21.6855 13.4531C21.8112 13.1917 21.8761 12.9051 21.8754 12.615ZM12.2784 8.87704H22.0069V10.4982H12.2784V8.87704ZM22.0069 24.6533H12.2784V23.0318H12.8159C12.8411 23.0318 12.8664 23.0392 12.893 23.0392C12.9197 23.0392 12.945 23.0318 12.9702 23.0318H21.3997C21.4246 23.0318 21.4505 23.0392 21.4768 23.0392C21.5032 23.0392 21.5288 23.0318 21.5537 23.0318H22.0097L22.0069 24.6533ZM21.0429 20.802V22.1555H13.3309V20.7933C13.3303 20.6323 13.3668 20.4733 13.4376 20.3287C13.5083 20.1841 13.6114 20.0577 13.7389 19.9594L17.1446 17.3177L20.6233 19.9629C20.7526 20.0615 20.8577 20.1883 20.9304 20.3338C21.0032 20.4792 21.0416 20.6394 21.0429 20.802ZM20.6009 13.4377L17.1432 16.2025L13.6845 13.4377C13.5603 13.3392 13.4599 13.2139 13.3909 13.0712C13.3219 12.9285 13.286 12.7721 13.286 12.6136V11.3745H20.999V12.615C20.9988 12.7732 20.9628 12.9294 20.8939 13.0718C20.825 13.2142 20.7248 13.3393 20.6009 13.4377Z" fill="#FFAF54"/>
</g>
</g>
</g>
<defs>
<clipPath id="clip0_451_95">
<rect x="0.400391" width="33" height="33" rx="16.5" fill="white"/>
</clipPath>
<clipPath id="clip1_451_95">
<rect width="11.4838" height="17.53" fill="white" transform="translate(11.4004 8)"/>
</clipPath>
<clipPath id="clip2_451_95">
<rect width="11.4823" height="17.53" fill="white" transform="translate(11.4014 8)"/>
</clipPath>
</defs>
</svg>
