<svg width="34" height="33" viewBox="0 0 34 33" fill="none" xmlns="http://www.w3.org/2000/svg">
<g clip-path="url(#clip0_41_7748)">
<rect x="0.399902" width="33" height="33" rx="16.5" fill="#E66666" fill-opacity="0.1"/>
<rect x="-4.6001" y="-5" width="44" height="44" rx="22" fill="#E66666" fill-opacity="0.1"/>
<g clip-path="url(#clip1_41_7748)">
<g clip-path="url(#clip2_41_7748)">
<path d="M21.8749 12.615V11.3745H22.058C22.2745 11.3751 22.4825 11.2904 22.6369 11.1387C22.7914 10.987 22.8798 10.7806 22.8831 10.5641V8.81004C22.8795 8.59374 22.7909 8.38756 22.6365 8.23601C22.4821 8.08446 22.2743 7.99969 22.058 8H12.2257C12.0091 7.9997 11.8012 8.08467 11.6468 8.23654C11.4925 8.3884 11.4041 8.59493 11.4009 8.81144V10.5655C11.4041 10.7819 11.4925 10.9884 11.6469 11.1401C11.8013 11.2918 12.0092 11.3765 12.2257 11.3759H12.4088V12.6164C12.4084 12.9064 12.4735 13.1927 12.5994 13.4539C12.7253 13.7152 12.9086 13.9445 13.1357 14.1249L16.4334 16.761L13.2006 19.2669C12.9672 19.4469 12.7784 19.6782 12.6488 19.9429C12.5193 20.2076 12.4524 20.4985 12.4533 20.7933V22.1555H12.2257C12.0092 22.1549 11.8013 22.2397 11.6469 22.3913C11.4925 22.543 11.4041 22.7495 11.4009 22.9659V24.7182C11.404 24.9348 11.4923 25.1414 11.6467 25.2933C11.8011 25.4453 12.0091 25.5303 12.2257 25.53H22.058C22.2746 25.5302 22.4826 25.4452 22.637 25.2933C22.7914 25.1414 22.8798 24.9348 22.8831 24.7182V22.9659C22.8798 22.7494 22.7914 22.543 22.6369 22.3913C22.4825 22.2396 22.2745 22.1549 22.058 22.1555H21.9177V20.802C21.9165 20.5044 21.8469 20.2109 21.7145 19.9444C21.582 19.6778 21.3901 19.4452 21.1536 19.2644L17.8559 16.7561L21.149 14.1249C21.3761 13.9443 21.5593 13.7146 21.685 13.4531C21.8107 13.1917 21.8756 12.9051 21.8749 12.615ZM12.2779 8.87704H22.0064V10.4982H12.2779V8.87704ZM22.0064 24.6533H12.2779V23.0318H12.8154C12.8406 23.0318 12.8659 23.0392 12.8926 23.0392C12.9192 23.0392 12.9445 23.0318 12.9697 23.0318H21.3992C21.4241 23.0318 21.45 23.0392 21.4764 23.0392C21.5027 23.0392 21.5283 23.0318 21.5532 23.0318H22.0092L22.0064 24.6533ZM21.0424 20.802V22.1555H13.3304V20.7933C13.3298 20.6323 13.3663 20.4733 13.4371 20.3287C13.5078 20.1841 13.6109 20.0577 13.7384 19.9594L17.1441 17.3177L20.6228 19.9629C20.7522 20.0615 20.8572 20.1883 20.9299 20.3338C21.0027 20.4792 21.0411 20.6394 21.0424 20.802ZM20.6004 13.4377L17.1427 16.2025L13.684 13.4377C13.5598 13.3392 13.4595 13.2139 13.3905 13.0712C13.3214 12.9285 13.2856 12.7721 13.2855 12.6136V11.3745H20.9985V12.615C20.9983 12.7732 20.9624 12.9294 20.8934 13.0718C20.8245 13.2142 20.7243 13.3393 20.6004 13.4377Z" fill="#E66666"/>
</g>
</g>
</g>
<defs>
<clipPath id="clip0_41_7748">
<rect x="0.399902" width="33" height="33" rx="16.5" fill="white"/>
</clipPath>
<clipPath id="clip1_41_7748">
<rect width="11.4838" height="17.53" fill="white" transform="translate(11.3999 8)"/>
</clipPath>
<clipPath id="clip2_41_7748">
<rect width="11.4823" height="17.53" fill="white" transform="translate(11.4009 8)"/>
</clipPath>
</defs>
</svg>
