<svg width="33" height="33" viewBox="0 0 33 33" fill="none" xmlns="http://www.w3.org/2000/svg">
<rect x="-5" y="-5" width="44" height="44" rx="22" fill="#AD984D" fill-opacity="0.2"/>
<g clip-path="url(#clip0_41_7173)">
<g clip-path="url(#clip1_41_7173)">
<path d="M21.475 12.615V11.3745H21.6581C21.8746 11.3751 22.0826 11.2904 22.237 11.1387C22.3914 10.987 22.4799 10.7806 22.4832 10.5641V8.81004C22.4795 8.59374 22.391 8.38756 22.2366 8.23601C22.0822 8.08446 21.8744 7.99969 21.6581 8H11.8257C11.6092 7.9997 11.4013 8.08467 11.2469 8.23654C11.0926 8.3884 11.0042 8.59493 11.001 8.81144V10.5655C11.0042 10.7819 11.0926 10.9884 11.247 11.1401C11.4014 11.2918 11.6093 11.3765 11.8257 11.3759H12.0089V12.6164C12.0085 12.9064 12.0736 13.1927 12.1995 13.4539C12.3254 13.7152 12.5087 13.9445 12.7358 14.1249L16.0335 16.761L12.8007 19.2669C12.5673 19.4469 12.3785 19.6782 12.2489 19.9429C12.1193 20.2076 12.0525 20.4985 12.0534 20.7933V22.1555H11.8257C11.6093 22.1549 11.4014 22.2397 11.247 22.3913C11.0926 22.543 11.0042 22.7495 11.001 22.9659V24.7182C11.0041 24.9348 11.0924 25.1414 11.2468 25.2933C11.4012 25.4453 11.6092 25.5303 11.8257 25.53H21.6581C21.8747 25.5302 22.0827 25.4452 22.2371 25.2933C22.3915 25.1414 22.4799 24.9348 22.4832 24.7182V22.9659C22.4799 22.7494 22.3914 22.543 22.237 22.3913C22.0826 22.2396 21.8746 22.1549 21.6581 22.1555H21.5178V20.802C21.5166 20.5044 21.447 20.2109 21.3146 19.9444C21.1821 19.6778 20.9902 19.4452 20.7537 19.2644L17.456 16.7561L20.7491 14.1249C20.9762 13.9443 21.1594 13.7146 21.2851 13.4531C21.4108 13.1917 21.4757 12.9051 21.475 12.615ZM11.878 8.87704H21.6065V10.4982H11.878V8.87704ZM21.6065 24.6533H11.878V23.0318H12.4155C12.4407 23.0318 12.466 23.0392 12.4927 23.0392C12.5193 23.0392 12.5446 23.0318 12.5698 23.0318H20.9993C21.0242 23.0318 21.0501 23.0392 21.0765 23.0392C21.1028 23.0392 21.1284 23.0318 21.1533 23.0318H21.6093L21.6065 24.6533ZM20.6425 20.802V22.1555H12.9305V20.7933C12.9299 20.6323 12.9664 20.4733 13.0372 20.3287C13.1079 20.1841 13.211 20.0577 13.3385 19.9594L16.7442 17.3177L20.2229 19.9629C20.3523 20.0615 20.4573 20.1883 20.53 20.3338C20.6028 20.4792 20.6412 20.6394 20.6425 20.802ZM20.2005 13.4377L16.7428 16.2025L13.2841 13.4377C13.1599 13.3392 13.0596 13.2139 12.9905 13.0712C12.9215 12.9285 12.8857 12.7721 12.8856 12.6136V11.3745H20.5986V12.615C20.5984 12.7732 20.5625 12.9294 20.4935 13.0718C20.4246 13.2142 20.3244 13.3393 20.2005 13.4377Z" fill="#B09B4F"/>
</g>
</g>
<defs>
<clipPath id="clip0_41_7173">
<rect width="11.4838" height="17.53" fill="white" transform="translate(11 8)"/>
</clipPath>
<clipPath id="clip1_41_7173">
<rect width="11.4823" height="17.53" fill="white" transform="translate(11.001 8)"/>
</clipPath>
</defs>
</svg>
