<svg width="33" height="33" viewBox="0 0 33 33" fill="none" xmlns="http://www.w3.org/2000/svg">
<rect width="33" height="33" rx="16.5" fill="#3578FF" fill-opacity="0.2"/>
<path d="M11.7717 18.2947L15.5942 15.2367C15.6829 15.1658 15.793 15.1271 15.9066 15.1271H18.1069H18.5028M18.5028 15.1271V14.2224C18.5028 14.0467 18.4099 13.8859 18.2675 13.7831C17.5723 13.2812 16.5231 12.1838 16.5231 10.7717C16.5231 9.95481 16.8156 8.78688 17.9037 8.22352C18.1926 8.07396 18.5028 8.3151 18.5028 8.64039V10.2717C18.5028 10.5478 18.7267 10.7717 19.0028 10.7717H19.9826C20.2587 10.7717 20.4826 10.5478 20.4826 10.2717V8.73852C20.4826 8.38478 20.8371 8.15473 21.1252 8.36005C21.761 8.81323 22.4623 9.6171 22.4623 10.7717C22.4623 12.1838 21.4131 13.2812 20.7179 13.7831C20.5755 13.8859 20.4826 14.0467 20.4826 14.2224V16.315V17.1069M18.5028 15.1271V16.6069C18.5028 16.883 18.7267 17.1069 19.0028 17.1069H20.4826M20.4826 17.1069H23.4431C23.5757 17.1069 23.7064 17.1572 23.782 17.2662C24.0075 17.5916 24.1812 18.1597 23.6502 18.6907M23.6502 18.6907H20.0866M23.6502 18.6907C23.9142 19.2186 24.2045 20.3537 23.2542 20.6704M23.2542 20.6704H19.2947M23.2542 20.6704C23.5109 21.1837 23.7925 22.2709 22.9346 22.6219C22.8849 22.6423 22.8309 22.6502 22.7772 22.6502H22.4623M18.8988 22.6502H22.4623M22.4623 22.6502C22.8541 23.3031 23.2459 24.6797 21.72 25.0155C21.6878 25.0226 21.6539 25.0259 21.6209 25.0259H14.2654C14.1878 25.0259 14.1112 25.0078 14.0418 24.9731L11.7717 23.8381M11.7717 23.8381V24.5259C11.7717 24.802 11.5478 25.0259 11.2717 25.0259H9.5C9.22386 25.0259 9 24.802 9 24.5259V17.2109C9 16.9348 9.22386 16.7109 9.5 16.7109H11.2717C11.5478 16.7109 11.7717 16.9348 11.7717 17.2109V23.8381Z" stroke="#3578FF" stroke-width="1.2" stroke-linejoin="round"/>
</svg>
