<svg xmlns="http://www.w3.org/2000/svg" xmlns:xlink="http://www.w3.org/1999/xlink" viewBox="0 0 216 118.81"><defs><style>.cls-1{fill:none;clip-rule:evenodd;}.cls-2{fill:#aaffe5;fill-rule:evenodd;}.cls-3{fill:#008ff4;}.cls-4{clip-path:url(#clip-path);}.cls-5{fill:#fff;}</style><clipPath id="clip-path"><path class="cls-1" d="M92.7,17.23h45.55a4,4,0,0,1,2.83,1.17l13.44,13.44a4,4,0,0,1,1.18,2.83V97.23a4,4,0,0,1-4,4h-59a4,4,0,0,1-4-4v-76A4,4,0,0,1,92.7,17.23Z"/></clipPath></defs><title>In-empty-details-icon</title><g id="Layer_2" data-name="Layer 2"><g id="Layer_1-2" data-name="Layer 1"><path class="cls-2" d="M209,106.71a7,7,0,1,1,7-7A7,7,0,0,1,209,106.71Zm-163,0a7,7,0,1,1,0-14H7a7,7,0,0,1,0-14H47a7,7,0,0,0,0-14H22a7,7,0,0,1,0-14H62a7,7,0,0,1,0-14h57a7,7,0,0,1,0,14h64a7,7,0,1,1,0,14h22a7,7,0,0,1,0,14H186a7,7,0,0,0,0,14h6a7,7,0,0,1,0,14Z"/><path class="cls-3" d="M71.88,15.28h8.69V16.8L73.91,25h6.82v1.73H71.37V25.08L78,17H71.88ZM55.21,0H67.16V2.09L58,13.33h9.38v2.38H54.51V13.46L63.66,2.38H55.21Z"/><path class="cls-3" d="M83.3,118.81a5.27,5.27,0,0,1-5.21-4.61l-9-73.43a3.25,3.25,0,0,1,2.83-3.62l4.89-.55a1.25,1.25,0,1,1,.28,2.48l-4.86.55a.74.74,0,0,0-.66.83l9,73.43a2.77,2.77,0,0,0,3.07,2.4l58.56-7.19a2.75,2.75,0,0,0,2.39-3.07l-.83-6.8-9.3-67.83A1.25,1.25,0,0,1,135.53,30a1.26,1.26,0,0,1,1.41,1.07l9.3,67.84.83,6.83a5.24,5.24,0,0,1-4.57,5.85l-58.56,7.19C83.73,118.79,83.51,118.81,83.3,118.81ZM80.86,38.65a1.25,1.25,0,0,1-.13-2.49l4.59-.52a1.25,1.25,0,0,1,.27,2.49L81,38.64Z"/><g class="cls-4"><path class="cls-5" d="M92.7,17.23h45.55a4,4,0,0,1,2.83,1.17l13.44,13.44a4,4,0,0,1,1.18,2.83V97.23a4,4,0,0,1-4,4h-59a4,4,0,0,1-4-4v-76A4,4,0,0,1,92.7,17.23Z"/></g><path class="cls-3" d="M151.7,102.48h-59a5.26,5.26,0,0,1-5.25-5.25v-76A5.26,5.26,0,0,1,92.7,16h45.55A5.26,5.26,0,0,1,142,17.52L155.41,31A5.23,5.23,0,0,1,157,34.67V97.23A5.26,5.26,0,0,1,151.7,102.48Zm-59-84A2.75,2.75,0,0,0,90,21.23v76A2.75,2.75,0,0,0,92.7,100h59a2.75,2.75,0,0,0,2.75-2.75V34.67a2.74,2.74,0,0,0-.81-2L140.2,19.29a2.74,2.74,0,0,0-1.95-.81Z"/><path class="cls-3" d="M149.63,35.48H141.7a4.25,4.25,0,0,1-4.25-4.25V19.63a1.25,1.25,0,1,1,2.5,0v11.6A1.75,1.75,0,0,0,141.7,33h7.93a1.25,1.25,0,0,1,0,2.5Z"/><path class="cls-3" d="M108,60.64a8.26,8.26,0,0,1-8.25-8.25,1.25,1.25,0,0,1,2.5,0,5.75,5.75,0,0,0,11.5,0,1.25,1.25,0,0,1,2.5,0A8.26,8.26,0,0,1,108,60.64Z"/><path class="cls-3" d="M137,60.64a8.26,8.26,0,0,1-8.25-8.25,1.25,1.25,0,1,1,2.5,0,5.75,5.75,0,0,0,11.5,0,1.25,1.25,0,1,1,2.5,0A8.26,8.26,0,0,1,137,60.64Z"/><path class="cls-3" d="M129.45,72.64H115a1.25,1.25,0,0,1,0-2.5h14.5a1.25,1.25,0,0,1,0,2.5Z"/></g></g></svg>