<svg xmlns="http://www.w3.org/2000/svg" viewBox="0 0 216 138.09"><defs><style>.cls-1{fill:#e7dfff;fill-rule:evenodd;}.cls-2,.cls-4{fill:#fff;stroke:#008ff4;stroke-linecap:round;stroke-miterlimit:10;}.cls-2{stroke-width:3px;}.cls-3,.cls-5{fill:#008ff4;}.cls-4{stroke-width:2px;}.cls-5{opacity:0.7;}</style></defs><title>In-empty-filter-icon</title><g id="Layer_2" data-name="Layer 2"><g id="Layer_1-2" data-name="Layer 1"><path class="cls-1" d="M7,78.19A7.14,7.14,0,0,0,7,63.91,7.14,7.14,0,0,0,7,78.19Zm72,0h91a7.14,7.14,0,0,0,0-14.28h39a7.14,7.14,0,0,0,0-14.28H169a7.14,7.14,0,0,1,0-14.28h25a7.14,7.14,0,0,0,0-14.28H154a7.06,7.06,0,0,0,7-7.14,7.06,7.06,0,0,0-7-7.13H97a7.06,7.06,0,0,0-7,7.13,7.06,7.06,0,0,0,7,7.14H33a7.14,7.14,0,0,0,0,14.28H11a7.14,7.14,0,0,0,0,14.28H30a7.14,7.14,0,0,1,0,14.28H24a7.14,7.14,0,0,0,0,14.28H76A6.76,6.76,0,0,0,77.5,78,6.76,6.76,0,0,0,79,78.19Z"/><polyline class="cls-2" points="32.92 1.78 96.63 72.26 96.63 126.53 107.97 135.02 107.97 72.49 170.95 1.78"/><path class="cls-3" d="M86.33,43a1,1,0,0,1-.81-.21,1,1,0,0,1-.16-1.4c.21-.26,5.21-6.35,17.06-8.65a33.19,33.19,0,0,1,18.74,1.64,1,1,0,0,1-.83,1.82,31.71,31.71,0,0,0-17.53-1.5C91.66,36.86,87,42.57,86.92,42.63A1,1,0,0,1,86.33,43Z"/><line class="cls-4" x1="91.31" y1="1" x2="78.76" y2="6.07"/><path class="cls-5" d="M86.39,100.45v2.88a1.25,1.25,0,0,1-2.5,0v-2.88a1.25,1.25,0,0,1,2.5,0Zm0-28.15V94.72a1.25,1.25,0,0,1-2.5,0V72.3a1.25,1.25,0,0,1,2.5,0ZM123,102.52V124a1.25,1.25,0,0,1-2.5,0V102.52a1.25,1.25,0,0,1,2.5,0ZM123,130v6.87a1.25,1.25,0,0,1-2.5,0V130a1.25,1.25,0,0,1,2.5,0Z"/><line class="cls-4" x1="114.76" y1="1" x2="127.31" y2="6.07"/></g></g></svg>