<svg xmlns="http://www.w3.org/2000/svg" xmlns:xlink="http://www.w3.org/1999/xlink" viewBox="0 0 216 124.5"><defs><style>.cls-1{fill:none;clip-rule:evenodd;}.cls-2{fill:#ffebd4;fill-rule:evenodd;}.cls-3{fill:#008ff4;}.cls-4{clip-path:url(#clip-path);}.cls-5{fill:#fff;}</style><clipPath id="clip-path"><path class="cls-1" d="M76,96.15V91.64m0-4.18V47.25a3,3,0,0,1,3-3h69.48a2,2,0,0,1,2,2v73a4,4,0,0,1-4,4H80a4,4,0,0,1-3.95-4v-19"/></clipPath></defs><title>In-empty-item-3-card-icon</title><g id="Layer_2" data-name="Layer 2"><g id="Layer_1-2" data-name="Layer 1"><path class="cls-2" d="M7,101.5c3.87,0,7-2.43,7-5.43s-3.13-5.42-7-5.42-7,2.43-7,5.42S3.13,101.5,7,101.5Zm72,0h91c3.87,0,7-2.43,7-5.43s-3.13-5.42-7-5.42h39c3.87,0,7-2.43,7-5.43s-3.13-5.42-7-5.42H169c-3.87,0-7-2.43-7-5.43s3.13-5.43,7-5.43h25c3.87,0,7-2.42,7-5.42s-3.13-5.43-7-5.43H154c3.87,0,7-2.43,7-5.42s-3.13-5.43-7-5.43H97c-3.87,0-7,2.43-7,5.43s3.13,5.42,7,5.42H33c-3.87,0-7,2.43-7,5.43s3.13,5.42,7,5.42H11c-3.87,0-7,2.43-7,5.43s3.13,5.43,7,5.43H30c3.87,0,7,2.43,7,5.42s-3.13,5.43-7,5.43H24c-3.87,0-7,2.43-7,5.42s3.13,5.43,7,5.43H76a9.2,9.2,0,0,0,1.5-.12A9.2,9.2,0,0,0,79,101.5Z"/><path class="cls-3" d="M54.13,111H57a1.25,1.25,0,0,0,0-2.5H54.13a1.25,1.25,0,1,0,0,2.5Zm89.54,0h21.46a1.25,1.25,0,0,0,0-2.5H143.67a1.25,1.25,0,0,0,0,2.5Zm27.46,0H178a1.25,1.25,0,0,0,0-2.5h-6.87a1.25,1.25,0,0,0,0,2.5Z"/><g class="cls-4"><rect class="cls-5" x="77" y="45.5" width="72.23" height="76.5"/></g><path class="cls-3" d="M146.54,124.5H80a5.23,5.23,0,0,1-5.2-5.25v-19a1.25,1.25,0,0,1,2.5,0v19A2.73,2.73,0,0,0,80,122h66.58a2.73,2.73,0,0,0,2.71-2.75v-73a.74.74,0,0,0-.73-.75H79a1.77,1.77,0,0,0-1.78,1.75V87.46a1.25,1.25,0,0,1-2.5,0V47.25A4.27,4.27,0,0,1,79,43h69.48a3.25,3.25,0,0,1,3.23,3.25v73A5.23,5.23,0,0,1,146.54,124.5ZM76,97.4a1.25,1.25,0,0,1-1.25-1.25V91.64a1.25,1.25,0,0,1,2.5,0v4.51A1.25,1.25,0,0,1,76,97.4Z"/><path class="cls-3" d="M149.25,44.25h-2.5v-12c0-.4-.25-.75-.54-.75H79.79c-.29,0-.54.35-.54.75v12h-2.5v-12a3.16,3.16,0,0,1,3-3.25h66.42a3.16,3.16,0,0,1,3,3.25Z"/><path class="cls-3" d="M78,45.5a1.25,1.25,0,0,1-.61-2.34l7.66-4.24-6.87-6.78a1.25,1.25,0,1,1,1.76-1.78l7.11,7A2.3,2.3,0,0,1,87.72,39a2.24,2.24,0,0,1-.65,1.59,2.1,2.1,0,0,1-.51.39l-8,4.4A1.24,1.24,0,0,1,78,45.5Zm7.29-6.35h0Z"/><path class="cls-3" d="M148.63,45.5a1.26,1.26,0,0,1-.59-.15l-8.1-4.42a2.23,2.23,0,0,1-.5-.37,2.28,2.28,0,0,1-.67-1.58,2.23,2.23,0,0,1,.64-1.6l6.81-6.94A1.25,1.25,0,0,1,148,32.19l-6.58,6.71,7.81,4.25a1.25,1.25,0,0,1-.6,2.35Z"/><path class="cls-3" d="M128,19.26A1.26,1.26,0,0,1,126.75,18a1.22,1.22,0,0,1,.32-.83l11.1-12.45a1.25,1.25,0,0,1,2.18.83,1.19,1.19,0,0,1-.32.83l-11.1,12.46A1.26,1.26,0,0,1,128,19.26Zm-29.9,0a1.26,1.26,0,0,1-.93-.42L86.07,6.38a1.19,1.19,0,0,1-.32-.83,1.25,1.25,0,0,1,2.18-.83L99,17.17a1.22,1.22,0,0,1,.32.83,1.26,1.26,0,0,1-1.25,1.26Zm14.9,0A1.25,1.25,0,0,1,111.75,18V1.25a1.25,1.25,0,0,1,2.5,0V18A1.25,1.25,0,0,1,113,19.26Z"/><path class="cls-3" d="M132,96.43a1,1,0,0,0,.76-.36,1,1,0,0,0-.14-1.41,22.85,22.85,0,0,0-18.37-8.81c-10.7.18-17.81,9.18-18.1,9.4a1,1,0,0,0-.21,1.39,1,1,0,0,0,1.4.21c.06,0,7-9.27,17-9.45a20.46,20.46,0,0,1,17,8.81A1,1,0,0,0,132,96.43Z"/><path class="cls-5" d="M135.4,61.75s-6.77,6.7-13.55,0"/><path class="cls-3" d="M128.33,65.73a10,10,0,0,1-7.18-3.27A1,1,0,1,1,122.56,61c6,5.91,11.89.24,12.14,0a1,1,0,1,1,1.4,1.42A12.39,12.39,0,0,1,128.33,65.73Z"/><path class="cls-5" d="M102.94,62.23s-6.77,6.7-13.54,0"/><path class="cls-3" d="M95.87,66.2a10,10,0,0,1-7.18-3.26,1,1,0,0,1,0-1.42,1,1,0,0,1,1.41,0c6,5.9,11.89.24,12.14,0a1,1,0,0,1,1.4,1.42A12.37,12.37,0,0,1,95.87,66.2Z"/></g></g></svg>